<svg xmlns="http://www.w3.org/2000/svg" xmlns:xlink="http://www.w3.org/1999/xlink" version="1.1" x="0px" y="0px" viewBox="0 0 64 80" enable-background="new 0 0 64 64" xml:space="preserve"><g><path d="M36.304,12.776v-0.231c0-0.041,0-0.075-0.007-0.116c0.041,0.116,0.088,0.217,0.122,0.326   c0.061,0.156,0.109,0.319,0.163,0.476c0-0.027-0.007-0.054-0.007-0.082c-0.075-0.36-0.163-0.72-0.292-1.067   c-0.02-0.36-0.068-0.707-0.15-1.053c0.007,0.02,0.02,0.041,0.034,0.061c-0.02-0.061-0.034-0.122-0.061-0.183   c-0.014-0.041-0.027-0.075-0.041-0.109c-0.088-0.224-0.197-0.435-0.326-0.632c-0.116-0.17-0.245-0.333-0.394-0.476   c-0.075-0.061-0.136-0.136-0.19-0.211c-0.211-0.319-0.448-0.605-0.734-0.836c-0.177-0.143-0.374-0.265-0.598-0.367   c-0.251-0.109-0.51-0.217-0.761-0.326c-0.061-0.027-0.129-0.054-0.19-0.082c0.72,0.054,1.4,0.258,2.059,0.537   c0.129,0.054,0.251,0.109,0.381,0.17c-0.027-0.027-0.054-0.048-0.082-0.068c-0.136-0.088-0.272-0.17-0.408-0.245   c-0.686-0.374-1.427-0.578-2.208-0.666c-0.347-0.041-0.707-0.041-1.04-0.177c-0.116-0.048-0.245-0.068-0.367-0.102   c-0.034-0.007-0.061-0.014-0.095-0.027c-0.143-0.034-0.292-0.068-0.435-0.109V7.156h1.624c-0.014-0.034-0.027-0.041-0.041-0.041   c-0.7-0.102-1.393-0.183-2.1-0.116h-0.027c-0.245,0.02-0.489,0.034-0.734,0c-0.102-0.014-0.217-0.02-0.319-0.027   c-0.007-0.014-0.007-0.02-0.007-0.027V6.939c0.53-0.095,1.06-0.197,1.624-0.299c-0.564,0.014-1.094,0.048-1.617,0.143   c-0.292,0.048-0.578,0.143-0.87,0.183C27.79,7.02,27.362,7.04,26.94,7.074c0.836-0.394,1.733-0.571,2.65-0.673   c-0.17,0.007-0.34,0-0.516,0.007c-0.632,0.034-1.264,0.109-1.875,0.279c-0.51,0.136-0.992,0.333-1.407,0.666   c-0.082,0.068-0.177,0.109-0.265,0.163C25.52,7.503,25.513,7.489,25.5,7.475c0.19-0.136,0.381-0.285,0.578-0.414   c0.204-0.122,0.414-0.238,0.632-0.34c0.211-0.095,0.435-0.177,0.646-0.265c-0.428,0.109-0.836,0.258-1.23,0.455   c-0.646,0.313-1.169,0.815-1.712,1.271c-0.109,0.095-0.224,0.19-0.34,0.279l-0.007,0.007c-0.041,0.068-0.088,0.143-0.129,0.211   c-0.054,0.109-0.102,0.231-0.163,0.333c-0.034,0.048-0.095,0.082-0.149,0.102c-0.109,0.048-0.231,0.075-0.34,0.122   c-0.027,0.014-0.054,0.027-0.082,0.041C23.074,9.344,22.952,9.419,22.85,9.5c-0.326,0.265-0.537,0.625-0.639,1.067   c0.136-0.279,0.319-0.53,0.578-0.754c-0.075,0.238-0.129,0.455-0.197,0.666c-0.027,0.082-0.068,0.17-0.116,0.245   c-0.136,0.211-0.245,0.435-0.326,0.7c0.109-0.19,0.204-0.353,0.306-0.516c0.007,0.007,0.014,0.014,0.02,0.014   c-0.007,0.048-0.02,0.088-0.027,0.136c-0.238,1.033-0.374,2.073-0.326,3.139c0.02,0.51,0.088,0.999,0.265,1.468v3.309   c0,1.182,0.428,2.331,1.203,3.228c0.19,0.224,0.353,0.469,0.489,0.727l0.557,1.108c0.904,1.78,2.704,2.895,4.709,2.895   c1.998,0,3.805-1.114,4.709-2.895l0.557-1.108c0.136-0.258,0.299-0.503,0.489-0.727c0.775-0.897,1.203-2.045,1.203-3.228v-2.97   c0.02-0.061,0.041-0.122,0.054-0.19c0.163-0.747,0.129-1.495,0.054-2.242C36.386,13.306,36.345,13.047,36.304,12.776z    M33.002,13.122c0.598,0.02,1.943,0.279,1.943,2.086v3.765c0,0.856-0.306,1.692-0.87,2.344c-0.265,0.299-0.489,0.639-0.673,0.999   l-0.557,1.101c-0.673,1.332-2.011,2.154-3.5,2.154s-2.827-0.822-3.5-2.154l-0.557-1.101c-0.183-0.36-0.408-0.7-0.673-1.006   c-0.564-0.646-0.87-1.481-0.87-2.338v-2.1c0-0.088,0.007-0.17,0.007-0.258c0.007-0.048,0-0.102,0.014-0.149V14.95   c0,0,0.116-1.821,1.672-1.821c0,0,2.453,1.074,4.03,1.08C30.739,14.215,31.935,13.822,33.002,13.122"/><path d="M52.23,47.882l-1.193,1.015l-2.362-2.774c9.499-9.748,10.19-25.356,1.191-35.919C40.322-0.999,23.442-2.349,12.239,7.195   S-0.315,33.618,9.229,44.822c8.999,10.563,24.517,12.363,35.653,4.535l2.364,2.772l-1.193,1.015l8.536,10.023l6.542-4.832   L52.23,47.882z M44.647,45.239c-9.774,8.326-24.499,7.149-32.825-2.625S4.673,18.113,14.447,9.787   c9.774-8.326,24.501-7.147,32.827,2.627C55.6,22.188,54.421,36.913,44.647,45.239z"/><path d="M43.346,43.681c0.916-0.783,1.376-1.978,1.308-3.181c-0.15-2.644-0.292-5.047-0.316-5.341   c-0.132-1.588-0.491-3.112-1.908-4.08c-2.376-1.622-5.207-2.008-7.804-2.887l-3.713,9.769l-0.642-6.452v-0.193l0.85-0.953   c0.019-0.026,0.032-0.051,0.039-0.084c0.013-0.064,0.013-0.129,0.013-0.193c0-0.618-0.502-1.139-1.146-1.139H28.68   c-0.708,0-1.249,0.637-1.133,1.332c0.006,0.032,0.026,0.058,0.045,0.084l0.953,0.985l-0.727,6.59l-3.684-9.859   c-2.356,0.813-4.606,1.524-6.805,2.371c-1.624,0.625-2.504,1.974-2.833,3.643c-0.071,0.361-0.263,3.105-0.446,5.992   c-0.076,1.201,0.384,2.386,1.277,3.193c7.79,7.039,19.801,7.403,28.004,0.415C43.336,43.689,43.341,43.685,43.346,43.681z"/></g><text x="0" y="79" fill="#000000" font-size="5px" font-weight="bold" font-family="'Helvetica Neue', Helvetica, Arial-Unicode, Arial, Sans-serif">Created by Arafat Uddin</text><text x="0" y="84" fill="#000000" font-size="5px" font-weight="bold" font-family="'Helvetica Neue', Helvetica, Arial-Unicode, Arial, Sans-serif">from the Noun Project</text></svg>